# xmcd
#
# Track frame offsets: 
#        150
#        13077
#        26042
#        38433
#        49981
#        63193
#        71814
#        82321
#        93033
#        104083
#        115811
#        127525
#        139393
#        150562
#        164987
#        178472
#        188928
#        200946
#        226639
#        238673
#        248704
#        259718
#        272510
#        282570
#        293434
#
# Disc length: 4093 seconds
#
# Revision: 0
# Processed by: cddbd v1.5.2PL0 Copyright (c) Steve Scherf et al.
# Submitted via: ExactAudioCopy v1.0b3
#
DISCID=720ffb19
DTITLE=Various Artist - RCAカントリー&ウエスタン100 Disc 3 BVCM-38039-42
DYEAR=1900
DGENRE=Country
TTITLE0=知りたくないの(たそがれのワルツ) 
TTITLE1=ア・フール・サッチ・アズ・アイ 
TTITLE2=アイ・ラヴ・ユー・ビコーズ
TTITLE3=夢の枕を
TTITLE4=涙もかれて
TTITLE5=スイート・ドリームス
TTITLE6=浮気はやめなよ
TTITLE7=迷わせないで 
TTITLE8=淋しがり屋と呼んで 
TTITLE9=電話に三歩
TTITLE10=悲しみは友を呼ぶ 
TTITLE11=エンド・オブ・ザ・ワールド
TTITLE12=ラスト・デイト
TTITLE13=カントリー・ホール・オブ・フェイム
TTITLE14=囚人の歌 
TTITLE15=マンション・オン・ザ・ヒル
TTITLE16=雨の別離 
TTITLE17=ジミー・ロジャース・ブルース 
TTITLE18=黒いヴェールの女
TTITLE19=アビリーン 
TTITLE20=アイ・ノウ・ワン 
TTITLE21=デトロイト・シティ 
TTITLE22=銀の糸と金の針
TTITLE23=恋に揺られて 
TTITLE24=気ままな人生
EXTD=
EXTT0=
EXTT1=
EXTT2=
EXTT3=
EXTT4=
EXTT5=
EXTT6=
EXTT7=
EXTT8=
EXTT9=
EXTT10=
EXTT11=
EXTT12=
EXTT13=
EXTT14=
EXTT15=
EXTT16=
EXTT17=
EXTT18=
EXTT19=
EXTT20=
EXTT21=
EXTT22=
EXTT23=
EXTT24=
PLAYORDER=
